
<svg width="117px" height="36px" viewBox="127 93 117 36" version="1.1" xmlns="http://www.w3.org/2000/svg" xmlns:xlink="http://www.w3.org/1999/xlink">
    <!-- Generator: Sketch 3.7.2 (28276) - http://www.bohemiancoding.com/sketch -->
    <desc>Created with Sketch.</desc>
    <defs></defs>
    <g id="Group-3" stroke="none" stroke-width="1" fill="none" fill-rule="evenodd" transform="translate(127.949472, 93.162545)">
        <text id="Parcel-Aide" font-family="HelveticaNeue-Bold, Helvetica Neue" font-size="16.9137815" font-weight="bold" fill="#333333">
            <tspan x="0" y="16">Parcel Aide</tspan>
        </text>
        <g id="Group" transform="translate(0.604064, 20.538163)" fill="#555555">
            <rect id="Rectangle-6" x="0" y="0" width="1.50086577" height="13.1742249"></rect>
            <rect id="Rectangle-6-Copy" x="13.3753572" y="0" width="1.50086577" height="13.1742249"></rect>
            <rect id="Rectangle-6-Copy-2" x="19.5553928" y="0" width="1.50086577" height="13.1742249"></rect>
            <rect id="Rectangle-6-Copy-3" x="26.6182905" y="0" width="1.50086577" height="13.1742249"></rect>
            <rect id="Rectangle-6-Copy-4" x="31.9154639" y="0" width="1.50086577" height="13.1742249"></rect>
            <rect id="Rectangle-6-Copy-5" x="34.5640505" y="0" width="1.50086577" height="13.1742249"></rect>
            <rect id="Rectangle-6-Copy-6" x="37.2126372" y="0" width="1.50086577" height="13.1742249"></rect>
            <rect id="Rectangle-6-Copy-14" x="41.7593722" y="0" width="2.97524558" height="13.1742249"></rect>
            <rect id="Rectangle-6-Copy-15" x="56.76803" y="0" width="2.97524558" height="13.1742249"></rect>
            <rect id="Rectangle-6-Copy-16" x="90.3167943" y="0" width="2.97524558" height="13.1742249"></rect>
            <rect id="Rectangle-6-Copy-17" x="108.371337" y="0" width="2.20715555" height="13.1742249"></rect>
            <rect id="Rectangle-6-Copy-7" x="52.2212949" y="0" width="1.50086577" height="13.1742249"></rect>
            <rect id="Rectangle-6-Copy-8" x="68.1128149" y="0" width="1.50086577" height="13.1742249"></rect>
            <rect id="Rectangle-6-Copy-9" x="72.527126" y="0" width="1.50086577" height="13.1742249"></rect>
            <rect id="Rectangle-6-Copy-10" x="83.1214726" y="0" width="1.50086577" height="13.1742249"></rect>
            <rect id="Rectangle-6-Copy-11" x="102.544441" y="0" width="1.50086577" height="13.1742249"></rect>
            <rect id="Rectangle-6-Copy-12" x="105.193028" y="0" width="1.50086577" height="13.1742249"></rect>
            <rect id="Rectangle-6-Copy-13" x="113.138788" y="0" width="1.50086577" height="13.1742249"></rect>
            <rect id="Rectangle-8" x="2.27777267" y="0" width="0.759261522" height="13.1742249"></rect>
            <rect id="Rectangle-8-Copy" x="4.04349711" y="0" width="0.759261522" height="13.1742249"></rect>
            <rect id="Rectangle-8-Copy-2" x="7.56613569" y="0" width="0.759261522" height="13.1742249"></rect>
            <rect id="Rectangle-8-Copy-3" x="10.2147223" y="0" width="0.759261522" height="13.1742249"></rect>
            <rect id="Rectangle-8-Copy-4" x="16.3947579" y="0" width="0.759261522" height="13.1742249"></rect>
            <rect id="Rectangle-8-Copy-5" x="21.7007415" y="0" width="0.759261522" height="13.1742249"></rect>
            <rect id="Rectangle-8-Copy-6" x="24.3405179" y="0" width="0.759261522" height="13.1742249"></rect>
            <rect id="Rectangle-8-Copy-7" x="28.754829" y="0" width="0.759261522" height="13.1742249"></rect>
            <rect id="Rectangle-8-Copy-8" x="40.2408481" y="0" width="0.759261522" height="13.1742249"></rect>
            <rect id="Rectangle-8-Copy-9" x="46.4120734" y="0" width="0.759261522" height="13.1742249"></rect>
            <rect id="Rectangle-8-Copy-10" x="48.1777978" y="0" width="0.759261522" height="13.1742249"></rect>
            <rect id="Rectangle-8-Copy-11" x="50.8263845" y="0" width="0.759261522" height="13.1742249"></rect>
            <rect id="Rectangle-8-Copy-12" x="60.5378689" y="0" width="0.759261522" height="13.1742249"></rect>
            <rect id="Rectangle-8-Copy-13" x="62.3035933" y="0" width="0.759261522" height="13.1742249"></rect>
            <rect id="Rectangle-8-Copy-14" x="64.95218" y="0" width="0.759261522" height="13.1742249"></rect>
            <rect id="Rectangle-8-Copy-15" x="70.2493533" y="0" width="0.759261522" height="13.1742249"></rect>
            <rect id="Rectangle-8-Copy-16" x="70.2493533" y="0" width="0.759261522" height="13.1742249"></rect>
            <rect id="Rectangle-8-Copy-17" x="78.1951133" y="0" width="0.759261522" height="13.1742249"></rect>
            <rect id="Rectangle-8-Copy-25" x="76.7207485" y="0" width="0.759261522" height="13.1742249"></rect>
            <rect id="Rectangle-8-Copy-18" x="80.8436999" y="0" width="0.759261522" height="13.1742249"></rect>
            <rect id="Rectangle-8-Copy-19" x="85.258011" y="0" width="0.759261522" height="13.1742249"></rect>
            <rect id="Rectangle-8-Copy-20" x="88.7894599" y="0" width="0.759261522" height="13.1742249"></rect>
            <rect id="Rectangle-8-Copy-21" x="94.9694955" y="0" width="0.759261522" height="13.1742249"></rect>
            <rect id="Rectangle-8-Copy-22" x="96.7352199" y="0" width="0.759261522" height="13.1742249"></rect>
            <polygon id="Rectangle-8-Copy-23" points="99.3838066 0 100.143068 0 100.143068 13.1742249 99.3838066 13.1742249"></polygon>
            <rect id="Rectangle-8-Copy-24" x="111.743878" y="0" width="0.759261522" height="13.1742249"></rect>
        </g>
    </g>
</svg>
